<?xml version="1.0" encoding="UTF-8" standalone="no"?>
<!-- Created with Inkscape (http://www.inkscape.org/) -->

<svg
   xmlns:dc="http://purl.org/dc/elements/1.1/"
   xmlns:cc="http://creativecommons.org/ns#"
   xmlns:rdf="http://www.w3.org/1999/02/22-rdf-syntax-ns#"
   xmlns:svg="http://www.w3.org/2000/svg"
   xmlns="http://www.w3.org/2000/svg"
   xmlns:sodipodi="http://sodipodi.sourceforge.net/DTD/sodipodi-0.dtd"
   xmlns:inkscape="http://www.inkscape.org/namespaces/inkscape"
   width="828.2901"
   height="415.69208"
   id="svg2"
   version="1.1"
   inkscape:version="0.48.4 r9939"
   sodipodi:docname="New document 1">
  <defs
     id="defs4" />
  <sodipodi:namedview
     id="base"
     pagecolor="#ffffff"
     bordercolor="#666666"
     borderopacity="1.0"
     inkscape:pageopacity="0.0"
     inkscape:pageshadow="2"
     inkscape:zoom="0.35355339"
     inkscape:cx="-57.035445"
     inkscape:cy="183.38153"
     inkscape:document-units="px"
     inkscape:current-layer="layer1"
     showgrid="false"
     inkscape:window-width="1600"
     inkscape:window-height="837"
     inkscape:window-x="-8"
     inkscape:window-y="-8"
     inkscape:window-maximized="1"
     fit-margin-top="0"
     fit-margin-left="0"
     fit-margin-right="0"
     fit-margin-bottom="0" />
  <metadata
     id="metadata7">
    <rdf:RDF>
      <cc:Work
         rdf:about="">
        <dc:format>image/svg+xml</dc:format>
        <dc:type
           rdf:resource="http://purl.org/dc/dcmitype/StillImage" />
        <dc:title></dc:title>
      </cc:Work>
    </rdf:RDF>
  </metadata>
  <g
     inkscape:label="Layer 1"
     inkscape:groupmode="layer"
     id="layer1"
     transform="translate(80.40384,-226.91193)">
    <path
       inkscape:connector-curvature="0"
       id="path3871"
       d="m 736.52074,290.7011 c -17.02486,2.85548 -29.91391,16.09292 -40.25,28.9375 -4.91364,8.31366 -5.83577,22.01162 3.25,27.78125 14.03808,7.0273 30.85382,-1.89839 38.28125,-14.28125 3.14836,-7.76135 6.45021,-15.62934 9.03125,-23.65625 1.70372,-6.24274 2.29305,-16.721 -5.84375,-18.375 -1.44883,-0.39361 -2.96828,-0.50924 -4.46875,-0.40625 z"
       style="fill:#ff0900;fill-opacity:1" />
    <path
       inkscape:connector-curvature="0"
       id="path3873"
       d="m 54.78356,226.91193 c -1.0795,3e-4 -2.6326,0.54595 -4.6562,1.625 -2.0239,1.07963 -4.4481,2.76919 -7.2813,5.0625 -3.2381,2.56372 -5.9089,4.5524 -8,5.96875 -2.0913,1.41692 -3.6182,2.26169 -4.5625,2.53125 -4.1825,4.18273 -7.1262,8.02366 -8.8126,11.53125 -1.6866,3.50813 -3.5388,5.38668 -5.5625,5.65625 l -10.125,2.03125 -7.875,9.09375 6.2812,9.9375 0,1 c -1.3492,2.29384 -3.4217,5.23741 -6.1874,8.81249 -2.7659,3.57555 -6.3077,11.09471 -10.625,22.5625 -0.9445,2.56364 -2.0884,5.66992 -3.4376,9.3125 -1.3492,3.64297 -2.6821,7.94574 -4.0312,12.9375 -4.8571,16.46013 -8.6454,28.93784 -11.3438,37.4375 -2.6983,8.49996 -4.3353,13.15938 -4.875,13.96875 -1.619,2.83341 -3.0357,5.47786 -4.25,7.90625 -1.2142,2.42864 -2.0015,4.58002 -2.4062,6.46876 -0.1349,2.42864 -0.9797,4.4699 -2.5312,6.15625 -1.5516,1.68658 -3.6241,3.16085 -6.1876,4.375 -3.6427,1.4842 -6.5551,2.76452 -8.7812,3.84375 -2.2261,1.07945 -3.6166,1.86668 -4.1562,2.40625 -2.1587,2.15879 -3.7957,4.82953 -4.875,8 -1.0794,3.17066 -1.5938,6.9853 -1.5938,11.4375 0,0.67467 0.026,1.49316 0.094,2.4375 0.067,0.94451 0.2827,2.14099 0.6874,3.625 -0.5396,1.61909 -0.9176,3.00953 -1.1874,4.15625 -0.2699,1.14687 -0.4063,2.2119 -0.4063,3.15625 0,1.754 0.3254,3.17073 1,4.25 0.6746,1.07941 1.7659,1.67765 3.25,1.8125 l 6.4687,-1.03125 1,1.625 c -1.0793,4.31743 -2.2232,8.15836 -3.4374,11.53125 -1.0794,3.50791 -2.003,6.47778 -2.8126,8.90625 -0.8095,2.42856 -1.4389,4.11812 -1.8437,5.0625 -0.1349,2.15872 -0.8696,5.48525 -2.2187,9.9375 -1.3492,4.45231 -2.9549,10.22438 -4.8438,17.375 -1.7539,5.39672 -3.0342,10.35526 -3.8438,14.875 -0.8094,4.51974 -1.2187,8.55463 -1.2187,12.0625 0,3.23801 0.6245,5.63593 1.9063,7.1875 1.2817,1.55153 3.0814,2.31248 5.375,2.3125 3.238,-2e-5 5.8512,-0.48814 7.875,-1.5 2.0237,-1.0119 3.5769,-2.62259 4.6562,-4.78125 1.7539,-3.50788 3.2282,-6.69303 4.375,-9.59375 1.1468,-2.90074 2.0442,-5.29865 2.7188,-7.1875 0.6745,-3.10311 1.1939,-5.82644 1.5312,-8.1875 0.3373,-2.36105 0.5,-4.34973 0.5,-5.96875 1.3492,-3.50784 2.5456,-6.58783 3.625,-9.21875 1.0793,-2.63087 2.0342,-4.83979 2.8438,-6.59375 1.2142,-4.58717 2.3055,-8.42811 3.25,-11.53125 0.9444,-3.10306 1.679,-5.39086 2.2187,-6.875 2.5634,-5.66649 4.6047,-10.3785 6.1563,-14.15625 1.5515,-3.77763 2.5327,-6.7475 2.9374,-8.90625 0.6746,-2.29353 1.5457,-4.06692 2.625,-5.28125 1.0794,-1.21418 2.4435,-1.81242 4.0626,-1.8125 2.0237,8e-5 4.558,-0.48804 7.5937,-1.5 3.0356,-1.0118 6.3572,-2.40224 10,-4.15625 6.2062,-2.42843 11.6841,-4.50094 16.4063,-6.1875 4.722,-1.68638 8.6468,-2.85657 11.75,-3.53125 2.1585,-0.94433 4.4464,-2.03565 6.8751,-3.25 5.6664,-0.13482 10.2157,-0.48652 13.6562,-1.09375 3.4403,-0.60703 5.9746,-1.17898 7.5938,-1.71875 2.2934,-1.34908 4.1983,-2.33027 5.75,-2.9375 1.5514,-0.60703 2.7528,-0.90615 3.5624,-0.90625 l 1.4063,0.59375 2.625,18.8125 -3.0313,5.46875 c 0.2698,2.29368 0.3223,4.77543 0.1876,7.40625 -0.1351,2.63096 -0.3767,5.21788 -0.7813,7.78125 0.6745,2.42858 1.3253,4.80021 2,7.09375 -1e-4,4.1825 -0.3518,10.42135 -1.0937,18.71875 -0.7422,8.29747 -1.1252,14.31608 -1.125,18.09375 -2e-4,1.21428 0.1362,2.631 0.4062,4.25 0.2697,1.61903 0.4061,2.89934 0.4062,3.84375 -10e-5,1.34919 -0.2466,3.31157 -0.7187,5.875 -0.4723,2.56344 -0.6876,4.52582 -0.6875,5.875 -1e-4,3.1031 0.4354,5.41719 1.3125,6.96875 0.8768,1.55154 2.1834,2.34374 3.9375,2.34375 3.2379,-10e-6 6.0713,-1.11762 8.5,-3.34375 2.4284,-2.22615 4.3908,-5.71538 5.875,-10.4375 0.8094,-3.50785 1.6541,-7.07596 2.5312,-10.71875 0.8769,-3.64276 1.7216,-7.2947 2.5313,-10.9375 -0.5398,-2.56341 -1.1693,-4.98762 -1.8437,-7.28125 -2e-4,-0.80947 0.3565,-2.4152 1.0312,-4.84375 0.6744,-2.42848 1.6819,-5.48218 3.0312,-9.125 0.8094,-4.9919 1.4076,-9.34725 1.8126,-13.125 0.4046,-3.77763 0.6248,-6.88391 0.625,-9.3125 l 3.625,-28.75 -2.625,-12.53125 c 0.4045,-0.53956 1.1129,-1.22163 2.125,-2.03125 1.0117,-0.80939 2.4021,-1.76429 4.1562,-2.84375 1.349,-0.80939 2.3828,-1.927 3.125,-3.34375 0.7419,-1.41652 1.1248,-3.32136 1.125,-5.75001 -2e-4,-1.88872 -0.5721,-3.38928 -1.7188,-4.46875 -1.1469,-1.07921 -2.8628,-1.67745 -5.1562,-1.8125 -0.6747,-0.13479 -1.1941,-0.51774 -1.5312,-1.125 -0.3375,-0.607 -0.5002,-1.31536 -0.5,-2.125 0.9442,-8.22984 1.8153,-16.32095 2.625,-24.28125 -1.6192,-8.36473 -3.0885,-16.31943 -4.4376,-23.875 0.9443,-5.93619 1.868,-11.79209 2.8126,-17.59375 -2e-4,-2.15848 -0.2155,-5.04948 -0.6876,-8.625 -0.4723,-3.57511 -1.1281,-8.04058 -1.9374,-13.4375 -0.6748,-6.47582 -1.5459,-11.57078 -2.625,-15.28124 -1.0795,-3.71 -2.3073,-5.83509 -3.6563,-6.375 l -24.2813,-13.15625 c -0.8096,-0.26958 -1.5179,-0.84153 -2.125,-1.71875 -0.6072,-0.87671 -0.9063,-1.99431 -0.9062,-3.34375 -1e-4,-2.96793 1.553,-7.30194 4.6562,-12.96875 3.103,-5.66626 4.6562,-9.96903 4.6563,-12.9375 -1e-4,-2.42823 -0.8186,-4.39061 -2.4375,-5.875 -1.6191,-1.4838 -4.2323,-2.21845 -7.875,-2.21875 z m 305.37499,60.31249 c -6.0714,2.3e-4 -11.76459,6.34921 -17.09375,19.03125 -5.32933,12.68247 -10.37171,19.27303 -15.09375,19.8125 l -6.65625,-2.03125 c -2.02383,0.40495 -3.87609,0.7879 -5.5625,1.125 -1.68653,0.33749 -3.43363,0.72044 -5.1875,1.125 -1.34923,-0.40456 -3.28037,-0.76122 -5.84375,-1.03125 -2.56349,-0.26964 -5.66977,-0.40605 -9.3125,-0.40625 -1.75397,0.40495 -3.66377,0.81419 -5.6875,1.21875 -2.56347,-0.53947 -5.4758,-0.97501 -8.78125,-1.3125 -3.30551,-0.3371 -6.84732,-0.4998 -10.625,-0.5 -3.77771,2e-4 -6.58487,2.28799 -8.40625,6.875 -1.8214,4.58739 -2.75001,11.2092 -2.75,19.84375 -10e-6,1.21443 0.46678,2.2482 1.34375,3.125 0.87696,0.87713 2.09973,1.5855 3.71875,2.125 1.07933,0.53984 2.19694,1.0592 3.34375,1.53125 1.14679,0.47238 2.40081,1.04432 3.75,1.71875 1.07932,1.6e-4 2.879,0.0527 5.375,0.1875 2.49595,0.13508 4.26438,0.21891 5.34375,0.21875 l 25.3125,0 c 0.94437,1.6e-4 2.3348,-0.24638 4.15625,-0.71875 1.82133,-0.47205 3.12793,-0.71859 3.9375,-0.71875 0.94436,1.6e-4 1.62643,0.22041 2.03125,0.625 0.40469,0.40492 0.59369,1.00316 0.59375,1.8125 -1.61908,3.64294 -3.08838,6.69664 -4.4375,9.125 -1.34924,2.42867 -2.57697,4.3598 -3.65625,5.84375 -8.90462,16.05534 -17.92434,30.28015 -27.03125,42.62501 -9.10697,12.34506 -18.4521,22.97051 -28.03125,31.875 -1.75393,2.15875 -3.24953,4.0373 -4.53125,5.65625 -1.28171,1.61908 -2.34674,2.95197 -3.15625,4.03125 l -0.8125,1.625 c 0.53968,0.40481 1.03275,0.95047 1.4375,1.625 0.40476,0.67465 0.73017,1.4093 1,2.21875 1.07935,3.23808 2.14437,6.09782 3.15625,8.59375 -0.56101,-1.2786 -1.13704,-2.50233 -1.71875,-3.71875 -1.48423,-3.10305 -2.79579,-6.02034 -3.875,-8.71875 -2.15881,1.75399 -3.95353,3.00801 -5.4375,3.75 -1.48422,0.7421 -5.81823,4.60933 -12.96875,11.625 -2.83334,2.6984 -5.44654,4.82349 -7.87504,6.375 -2.4286,1.55159 -4.5274,2.34379 -6.2812,2.34375 -0.8096,4e-5 -1.4654,-0.22021 -1.9375,-0.625 -0.4723,-0.40472 -0.6876,-0.91912 -0.6875,-1.59375 -1e-4,-5.12683 2.0674,-12.72983 6.25,-22.78125 4.1823,-10.0513 6.2811,-17.75946 6.2812,-23.15625 -1e-4,-10.25365 -1.333,-18.97426 -4.0312,-26.125 -2.6985,-7.15052 -6.7597,-12.7336 -12.1563,-16.78126 -0.6746,-0.53954 -1.766,-1.30545 -3.25,-2.25 -2.9682,-2.96806 -6.017,-5.80151 -9.1874,-8.5 -3.1707,-2.69821 -7.0692,-4.03111 -11.6563,-4.03125 -4.3174,1.4e-4 -9.9268,2.28794 -16.875,6.875 -6.9483,4.58733 -11.3086,8.56468 -13.0625,11.9375 l 2.0312,9.71876 c -2.8333,6.47616 -7.3826,13.44967 -13.6562,20.9375 -6.2737,7.48802 -14.3385,15.28001 -24.1875,23.375 -2.1587,3.10317 -4.3413,6.07304 -6.5,8.90625 1.619,3.23808 3.1196,6.37066 4.4687,9.40625 1.3492,3.0357 2.577,6.11569 3.6563,9.21875 1.2143,-1.34913 2.0853,-2.57686 2.625,-3.65625 0.5397,-1.0793 0.9489,-1.86653 1.2187,-2.40625 4.4523,-2.96814 8.0204,-5.74901 10.7188,-8.3125 2.6983,-2.56338 4.6607,-4.85117 5.875,-6.875 2.0237,-1.07928 4.5844,-3.17808 7.6875,-6.28125 3.1031,-3.10304 6.5874,-7.08039 10.5,-11.9375 3.6427,-4.4522 7.2421,-8.15672 10.75,-11.125 3.5078,-2.96809 6.7505,-5.25589 9.7187,-6.875 4.4523,0.53977 7.7738,2.69115 10,6.46875 2.2261,3.77779 3.3437,9.25569 3.3438,16.40625 -1e-4,5.80153 -0.7923,12.33951 -2.3438,19.625 -1.5516,7.28561 -3.7818,15.15647 -6.75,23.65625 -0.6746,1.88888 -1.4931,3.77239 -2.4374,5.59375 -0.9445,1.82141 -1.8156,3.58984 -2.625,5.34375 -1.0794,2.29362 -1.9242,4.41871 -2.5313,6.375 -0.6072,1.95632 -0.9063,3.67217 -0.9063,5.15625 0,3.7777 1.4167,6.53228 4.25,8.21875 2.8333,1.68647 7.0834,2.53125 12.75,2.53125 3.5078,-1.07934 6.5829,-2.49607 9.2813,-4.25 10.2536,-6.20621 19.0844,-11.7104 26.4375,-16.5 7.35289,-4.78955 13.31892,-8.87703 17.90624,-12.25 2.15856,-1.88881 4.01082,-3.57837 5.5625,-5.0625 1.55142,-1.48406 2.94186,-2.76437 4.15625,-3.84375 1.34918,-2.02372 2.54565,-3.71328 3.625,-5.0625 1.07934,-1.34913 1.81399,-2.35661 2.21875,-3.03125 7.15063,-6.74583 14.18168,-13.42022 21.0625,-20.03125 4.45225,-3.91254 8.29319,-7.6746 11.53125,-11.25 3.23798,-3.57524 5.88244,-6.98064 7.90625,-10.21875 l 2,-1.21875 c 1.07929,0.53976 1.62495,1.16925 1.625,1.84375 -1.61906,3.64287 -3.1722,7.07456 -4.65625,10.3125 -0.94447,5.26187 -1.81554,10.51953 -2.625,15.78125 -0.53971,3.10317 -1.00154,5.80021 -1.40625,8.09375 -0.40479,2.29366 -0.62504,4.11963 -0.625,5.46875 -0.26988,0.80956 -0.67912,1.76446 -1.21875,2.84375 -1.2143,3.50791 -2.08537,8.10979 -2.625,13.84375 -0.53971,5.73403 -0.81254,12.51854 -0.8125,20.34375 -4e-5,7.15065 1.47423,12.49214 4.375,16 2.90069,3.50786 7.31357,5.24999 13.25,5.25 2.6983,-10e-6 5.58433,-0.76095 8.6875,-2.3125 3.10304,-1.55156 6.29316,-4.08589 9.53125,-7.59375 2.42844,-2.56343 4.79511,-5.20789 7.15625,-7.90625 2.36098,-2.69834 4.7589,-5.39538 7.1875,-8.09375 2.42843,-2.4285 4.66364,-4.55359 6.6875,-6.375 2.02367,-1.82136 3.71323,-3.45338 5.0625,-4.9375 3.37284,-2.29357 6.25888,-4.4762 8.6875,-6.5 2.42841,-2.02373 4.33821,-3.76586 5.6875,-5.25 l -7.90625,-18.625 c -9.03958,7.69036 -16.09692,13.49368 -21.15625,17.40625 -5.05949,3.91265 -7.97182,5.87504 -8.78125,5.875 -1.34925,4e-5 -2.35673,-0.54562 -3.03125,-1.625 -0.67466,-1.0793 -1.03132,-2.68503 -1.03125,-4.84375 -7e-5,-2.42847 0.57188,-7.17173 1.71875,-14.1875 1.14673,-7.01566 2.80999,-16.16684 4.96875,-27.5 3.50778,-14.16626 6.66664,-26.45497 9.5,-36.84375 2.83318,-10.38854 5.39381,-18.94148 7.6875,-25.68751 0.67449,-2.56329 1.22015,-4.82479 1.625,-6.78125 0.40466,-1.95615 0.76132,-3.61941 1.03125,-4.96875 l 13.75,-2.84375 c 1.6189,-0.13476 2.78909,-2.39626 3.53125,-6.78125 0.74193,-4.38465 1.12488,-10.62351 1.125,-18.71875 -1.2e-4,-1.88866 -0.16282,-3.46809 -0.5,-4.75 -0.33741,-1.28152 -0.90936,-2.17888 -1.71875,-2.71875 -0.94454,-0.80931 -1.6529,-1.51767 -2.125,-2.125 -0.47232,-0.60693 -0.85528,-1.17888 -1.125,-1.71875 0.26972,-2.56324 1.3035,-6.37788 3.125,-11.4375 1.82127,-5.0592 2.74988,-9.14667 2.75,-12.25 -1.2e-4,-3.91239 -0.87119,-6.88225 -2.625,-8.90625 -1.75404,-2.02353 -4.26208,-3.03102 -7.5,-3.03125 z m -1.21875,174.43751 c 2.15869,4.45234 3.93208,8.15686 5.28125,11.125 1.34918,2.96824 2.27283,5.47628 2.8125,7.5 1.61901,-2.02372 3.11957,-3.55057 4.46875,-4.5625 1.34917,-1.01184 2.54565,-1.49995 3.625,-1.5 1.34917,5e-5 2.5769,0.70841 3.65625,2.125 1.07933,1.41668 2.22323,3.59435 3.4375,6.5625 1.48408,3.64281 2.9008,6.77539 4.25,9.40625 1.34916,2.63092 2.68205,4.6196 4.03125,5.96875 2.56341,2.83329 5.77981,5.01592 9.625,6.5 3.84512,1.48411 8.258,2.21876 13.25,2.21875 3.77765,1e-5 7.04663,-0.2991 9.8125,-0.90625 2.76575,-0.60711 5.2475,-1.58831 7.40625,-2.9375 5.26172,2e-5 11.0075,-1.93607 17.28125,-5.78125 6.27359,-3.84513 13.27834,-9.53832 20.96875,-17.09375 -0.80961,-2.29356 -1.90092,-4.9906 -3.25,-8.09375 -1.34928,-3.10305 -2.90242,-6.61858 -4.65625,-10.53125 -1.48419,1.21432 -2.9535,2.19551 -4.4375,2.9375 -1.48418,0.7421 -2.5755,1.31405 -3.25,1.71875 -3.37303,1.8889 -7.21396,3.52587 -11.53125,4.875 -4.31744,1.34923 -9.11328,2.2203 -14.375,2.625 -3.23808,-0.67454 -6.04524,-1.44044 -8.40625,-2.25 -2.36111,-0.80946 -4.07696,-1.59669 -5.15625,-2.40625 -1.88889,-1.07929 -3.33191,-2.71626 -4.34375,-4.875 -1.01193,-2.15862 -1.53129,-4.63542 -1.53125,-7.46875 -4e-5,-1.61895 0.35662,-3.1458 1.03125,-4.5625 0.67455,-1.41656 1.46178,-2.58675 2.40625,-3.53125 11.19811,-10.92825 20.10772,-20.65634 26.71875,-29.15625 6.61089,-8.49971 10.86107,-15.99258 12.75,-22.46876 l 1.84375,-6.46875 c 0.94434,-3.23789 1.6527,-5.60952 2.125,-7.09375 0.31868,-1.00167 0.52139,-1.48072 0.625,-1.4375 -0.50701,-3.05406 -0.95892,-5.9025 -1.34375,-8.46875 -0.80959,-3.10296 -1.65437,-5.71616 -2.53125,-7.875 -0.87705,-2.15853 -1.77441,-3.7955 -2.71875,-4.875 -1.34926,-1.61885 -3.09635,-2.76275 -5.1875,-3.4375 -2.0913,-0.67442 -4.81463,-0.99983 -8.1875,-1 -2.42859,1.7e-4 -4.6638,0.18916 -6.6875,0.59375 -2.02383,0.40492 -3.81855,0.86674 -5.4375,1.40625 -1.75399,1.34934 -3.52737,2.57707 -5.28125,3.65625 -1.75398,1.0795 -3.3597,2.2234 -4.84375,3.4375 -3.10315,3.77785 -6.20943,7.50866 -9.3125,11.21875 -3.10314,3.71038 -6.07301,7.14703 -8.90625,10.25 -3.37297,5.53176 -6.0963,10.51659 -8.1875,14.96876 -2.09124,4.4524 -3.75451,8.15692 -4.96875,11.125 -1.07936,2.9683 -2.06055,5.71792 -2.9375,8.28125 -0.87698,2.56353 -1.50151,4.79875 -1.90625,6.6875 -0.13493,2.69845 -0.40776,5.36919 -0.8125,8 -0.40476,2.63098 -0.81401,5.30173 -1.21875,8 -3.91262,3.10318 -7.15531,6.09934 -9.71875,9 -2.56343,2.9008 -4.66223,5.76054 -6.28125,8.59375 z m 96.46875,-79.56251 c 0.0261,0.15739 0.0361,0.27881 0.0625,0.4375 -3e-5,-0.26304 -0.0126,-0.41669 -0.0625,-0.4375 z m 5.53125,79.56251 c 2.15869,4.45234 3.90083,8.15686 5.25,11.125 1.34918,2.96824 2.30408,5.47628 2.84375,7.5 1.34918,-2.02372 2.51936,-3.71328 3.53125,-5.0625 1.01188,-1.34913 1.80407,-2.49303 2.34375,-3.4375 17.13453,-16.05514 30.4833,-28.12361 40.0625,-36.21875 9.5791,-8.09497 15.24601,-12.15615 17,-12.15625 1.75386,1e-4 3.00789,0.43563 3.75,1.3125 0.74198,0.87706 1.12493,2.21491 1.125,3.96875 -7e-5,2.42861 -0.13648,5.91288 -0.40625,10.5 -0.2699,4.58728 -0.89939,9.98136 -1.84375,16.1875 -0.94449,7.1507 -1.92568,12.60232 -2.9375,16.3125 -1.01195,3.71028 -1.96189,5.56254 -2.90625,5.5625 -0.94448,4e-5 -1.87309,-1.06498 -2.75,-3.15625 -0.87702,-2.09117 -2.32004,-3.12495 -4.34375,-3.125 -3.91266,5e-5 -7.42819,1.30665 -10.53125,3.9375 -3.10315,2.63094 -4.65629,5.98376 -4.65625,10.03125 -4e-5,0.67462 0.49304,2.77342 1.4375,6.28125 -0.13496,0.94445 -0.27137,2.00452 -0.40625,3.21875 -0.13496,1.21429 -0.21879,2.35818 -0.21875,3.4375 -4e-5,5.80148 0.5982,11.09039 1.8125,15.8125 1.21422,4.72212 2.85119,8.88847 4.875,12.53125 -0.13496,2.15868 0.13787,3.90081 0.8125,5.25 0.67454,1.34917 1.73461,2.25149 3.21875,2.65625 2.42847,-0.80952 4.74751,-1.60171 6.90625,-2.34375 2.15862,-0.74206 4.31001,-1.503 6.46875,-2.3125 1.34911,-0.53968 2.84471,-1.49458 4.53125,-2.84375 1.6864,-1.34918 3.48608,-3.31156 5.375,-5.875 l 3.84375,-0.8125 c 4.31729,-3.64277 8.21576,-6.91176 11.65625,-9.8125 3.44031,-2.90072 6.16364,-5.35122 8.1875,-7.375 4.45218,-2.83325 8.53966,-5.47771 12.25,-7.90625 3.71012,-2.42849 6.97911,-4.57987 9.8125,-6.46875 1.21414,-1.61898 2.52074,-3.08829 3.9375,-4.4375 1.41651,-1.34914 2.99594,-2.57687 4.75,-3.65625 -0.94455,-2.69831 -2.08845,-5.55805 -3.4375,-8.59375 -1.3493,-3.0356 -2.81861,-6.38841 -4.4375,-10.03125 -0.67471,0.40481 -2.36426,1.76896 -5.0625,4.0625 -2.69847,2.29366 -6.40299,5.58893 -11.125,9.90625 -4.04763,3.64282 -7.29033,6.36615 -9.71875,8.1875 -2.42861,1.82143 -4.11817,2.75004 -5.0625,2.75 -1.07943,-0.53963 -1.7615,-1.08529 -2.03125,-1.625 1.61892,-5.39667 3.00936,-9.97226 4.15625,-13.75 1.14671,-3.77764 2.26432,-6.96776 3.34375,-9.53125 4.85694,-15.65038 7.69039,-24.96922 8.5,-27.9375 0.8094,-2.9681 2.1423,-11.24821 4.03125,-24.875 0.53956,-4.722 1.05893,-8.64677 1.53125,-11.75001 0.4721,-3.10298 0.68739,-5.30694 0.6875,-6.65625 -1.1e-4,-5.39657 -1.49571,-9.56788 -4.53125,-12.46875 -3.03575,-2.90058 -7.58505,-4.3436 -13.65625,-4.34375 -1.48418,1.5e-4 -3.01103,0.24669 -4.5625,0.71875 -1.55164,0.47236 -3.2149,1.09689 -4.96875,1.90625 -5.26187,4.72226 -10.00016,9.27156 -14.25,13.65625 -4.24997,4.38495 -8.06462,8.41985 -11.4375,12.06251 -2.96824,2.96831 -5.58641,5.39252 -7.8125,7.28125 -2.22619,1.88896 -4.21486,3.4421 -5.96875,4.65625 -1.07938,1.88895 -2.13945,3.57851 -3.21875,5.0625 -1.07938,1.4842 -2.08686,2.54426 -3.03125,3.21875 -2.69839,2.69845 -5.15385,5.0175 -7.3125,6.90625 -2.15871,1.88894 -3.95343,3.35825 -5.4375,4.4375 -0.40478,0.80959 -1.22326,1.95349 -2.4375,3.4375 -0.53969,0.80959 -2.06654,2.0899 -4.5625,3.84375 -2.49599,1.75401 -5.95397,4.0418 -10.40625,6.875 -3.37295,2.15876 -5.99111,4.34139 -7.8125,6.5 -1.82138,2.15875 -2.99157,4.17372 -3.53125,6.0625 l -1.21875,1.40625 z M 34.12736,307.25567 c 2.2935,2.1e-4 4.5287,0.59845 6.6874,1.8125 2.1586,1.21447 4.1736,3.12427 6.0626,5.6875 1.349,2.15889 2.7394,4.28398 4.1562,6.375 1.4165,2.09142 2.807,4.2691 4.1562,6.5625 0.8094,1.34937 1.5441,2.62968 2.2188,3.84375 0.6745,1.21445 1.1363,2.08552 1.4062,2.625 -0.2699,1.75412 -0.2436,3.96304 0.094,6.59375 0.3372,2.63107 0.804,5.40699 1.3438,8.375 l -0.8126,8.3125 2.4063,9.09375 c -0.6747,3.3731 -1.1628,6.67333 -1.5,9.84375 -0.3374,3.17071 -0.5001,6.03045 -0.5,8.59375 -1e-4,1.48423 0.1363,4.23385 0.4063,8.28125 -2e-4,1.21439 -0.3568,2.19558 -1.0313,2.9375 -0.6747,0.74217 -1.6822,1.26154 -3.0313,1.53125 -3.373,0.67471 -6.6683,1.43566 -9.9062,2.31251 -3.2381,0.87709 -6.5647,1.66928 -9.9375,2.34375 -1.8889,-0.26972 -3.7675,-0.62638 -5.6563,-1.03125 -3.1031,1.2e-4 -7.6788,0.76602 -13.7501,2.25 -6.0713,1.48421 -10.6782,2.21887 -13.7812,2.21875 -1.3492,1.2e-4 -3.5269,0.13653 -6.5625,0.40625 -3.0357,0.26995 -5.2446,0.40637 -6.5937,0.40625 -0.9445,1.2e-4 -1.6529,-0.24642 -2.125,-0.71875 -0.4723,-0.4721 -0.6876,-1.18046 -0.6876,-2.125 0,-0.80939 0.026,-1.54404 0.094,-2.21875 0.067,-0.67447 0.4504,-1.49295 1.125,-2.43751 5.5316,-10.25361 9.8343,-19.18951 12.9375,-26.8125 3.103,-7.62269 4.929,-13.99796 5.4687,-19.125 3.3729,-5.39653 5.9598,-9.78313 7.7813,-13.15625 1.8213,-3.37276 2.9389,-5.60797 3.3437,-6.6875 2.4285,-8.76945 5.0729,-15.30743 7.9064,-19.625 2.8332,-4.31715 5.5828,-6.46854 8.2813,-6.46875 z m 649.03119,61.9375 c -3.10319,1.5e-4 -6.3196,1.19663 -9.625,3.625 -3.30556,2.42867 -6.62713,5.94419 -10,10.53125 -5.12694,6.07143 -9.73378,11.32909 -13.78125,15.78125 -4.04758,4.45241 -7.47927,8.10435 -10.3125,10.93751 -6.07134,7.01583 -10.73076,12.4099 -13.96875,16.1875 -3.23805,3.77779 -5.25302,6.013 -6.0625,6.6875 -7.96016,7.0158 -14.55568,12.898 -19.75,17.6875 -5.19433,4.78965 -9.06156,8.46788 -11.625,11.03125 0.53968,0.40481 1.0015,0.95047 1.40625,1.625 0.40476,0.67465 0.76142,1.4093 1.03125,2.21875 1.07935,3.23808 2.11312,6.07153 3.125,8.5 1.01188,2.42856 1.85666,4.52736 2.53125,6.28125 1.61901,-1.75389 4.26347,-4.28822 7.90625,-7.59375 3.64277,-3.30543 8.30219,-7.52932 13.96875,-12.65625 4.58718,-4.18238 8.56453,-7.99703 11.9375,-11.4375 3.37291,-3.44033 6.20636,-6.70931 8.5,-9.8125 2.02372,-2.56335 4.1751,-4.49449 6.46875,-5.84375 2.29355,-1.34909 4.71776,-2.03116 7.28125,-2.03125 1.07928,9e-5 2.06048,0.43563 2.9375,1.3125 0.8769,0.87705 1.58527,2.13107 2.125,3.75 l -3.4375,10.90625 1.21875,10.53125 c 0.13486,0.94449 -0.0591,2.77046 -0.53125,5.46875 -0.47227,2.69841 -1.04422,6.35035 -1.71875,10.9375 -0.80956,5.39675 -1.81705,11.33649 -3.03125,17.8125 -0.94448,6.07132 -1.84184,11.30269 -2.71875,15.6875 -0.87702,4.38484 -1.72179,7.97923 -2.53125,10.8125 -4.31741,7.42047 -8.59388,14.31511 -12.84375,20.65625 -4.24994,6.34111 -8.61024,12.19701 -13.0625,17.59375 -2.02379,4.18241 -3.98617,8.10718 -5.875,11.75 -1.88886,3.64273 -3.71483,7.39983 -5.46875,11.3125 -2.02378,4.04747 -3.7922,8.13494 -5.34375,12.25 -1.55156,4.11492 -2.80558,8.3388 -3.75,12.65625 -1.34918,6.20613 -2.35666,11.4375 -3.03125,15.6875 -0.67459,4.24981 -1.03125,7.38238 -1.03125,9.40625 0,3.103 0.24654,5.63733 0.71875,7.59375 0.47221,1.95619 1.31699,3.31538 2.53125,4.125 0.53967,0.26972 1.79369,0.51626 3.75,0.71875 1.9563,0.20226 4.54321,0.4488 7.78125,0.71875 3.10309,0.1348 6.97032,-2.69865 11.625,-8.5 4.65463,-5.80156 9.96983,-14.57475 15.90625,-26.3125 4.85699,-9.84907 8.97076,-18.48584 12.34375,-25.90625 3.37289,-7.42053 5.74451,-13.82209 7.09375,-19.21875 0.67453,-2.56347 1.51931,-5.50705 2.53125,-8.8125 1.01182,-3.30551 2.18201,-6.79475 3.53125,-10.4375 2.42845,-4.99197 4.57983,-9.32102 6.46875,-13.03125 1.88877,-3.71024 3.4945,-6.7064 4.84375,-9 4.72204,-2.83327 8.4841,-5.61414 11.25,-8.3125 2.76572,-2.69834 4.5654,-5.25897 5.375,-7.6875 17.53919,-16.05518 26.9632,-24.41912 28.3125,-25.09375 l -8.09375,-18.625 c -3.23814,3.64284 -7.32561,7.5676 -12.25,11.75 -4.92459,4.18249 -10.67037,8.7055 -17.28125,13.5625 -9e-5,-0.67455 -0.0839,-1.57687 -0.21875,-2.65625 -8e-5,-1.61897 0.13633,-3.55011 0.40625,-5.84375 0.26975,-2.29356 0.81541,-4.8016 1.625,-7.5 0.94434,-3.64272 1.6527,-6.5863 2.125,-8.8125 0.47212,-2.22608 0.77124,-3.80551 0.90625,-4.75 2.42843,-15.11071 4.22811,-27.36817 5.375,-36.8125 1.1467,-9.44413 1.71865,-16.06594 1.71875,-19.84375 -10e-5,-2.29349 0.32531,-5.6726 1,-10.12501 0.67449,-4.45215 0.9999,-7.83126 1,-10.125 -10e-5,-3.64263 -0.89746,-6.41855 -2.71875,-8.375 -1.82148,-1.95616 -4.68123,-2.93735 -8.59375,-2.9375 z m -259.4375,26.6875 c 0.94437,1.3e-4 1.65273,0.38308 2.125,1.125 0.47215,0.74217 0.68744,1.72336 0.6875,2.93751 -6e-5,1.88897 -0.4093,3.76752 -1.21875,5.65625 -0.80956,1.88896 -2.00604,3.79876 -3.625,5.6875 -1.34923,1.4842 -2.73967,2.9798 -4.15625,4.53125 -1.41669,1.55166 -2.8597,3.02593 -4.34375,4.375 -0.80955,1.34928 -1.68062,2.7923 -2.625,4.34375 -0.94447,1.55165 -2.1722,2.3126 -3.65625,2.3125 -1.07938,1e-4 -1.78774,-0.16261 -2.125,-0.5 -0.33733,-0.3372 -0.50004,-0.90915 -0.5,-1.71875 -4e-5,-3.64268 2.47675,-9.33587 7.46875,-17.09375 4.99191,-7.75765 9.00051,-11.65613 11.96875,-11.65626 z"
       style="font-size:414.46725464px;font-style:normal;font-variant:normal;font-weight:normal;font-stretch:normal;line-height:125%;letter-spacing:0px;word-spacing:0px;fill:#000000;fill-opacity:1;stroke:none;font-family:Mistral;-inkscape-font-specification:Mistral" />
    <rect
       y="461.83533"
       x="246.10878"
       height="13.392857"
       width="11.071429"
       id="rect3875"
       style="fill:#000000;fill-opacity:1" />
    <rect
       y="461.94064"
       x="358.93243"
       height="18.340582"
       width="8.100832"
       id="rect3877"
       style="fill:#000000;fill-opacity:1" />
    <rect
       y="462.01642"
       x="461.12201"
       height="18.266479"
       width="7.9042854"
       id="rect3879"
       style="fill:#000000;fill-opacity:1" />
    <rect
       y="461.66422"
       x="587.84631"
       height="18.615454"
       width="8.2888584"
       id="rect3881"
       style="fill:#000000;fill-opacity:1" />
  </g>
</svg>
